<?xml version="1.0" encoding="utf-8"?>
<!-- Generator: Adobe Illustrator 26.1.0, SVG Export Plug-In . SVG Version: 6.00 Build 0)  -->
<svg version="1.1" id="Layer_1" xmlns="http://www.w3.org/2000/svg" xmlns:xlink="http://www.w3.org/1999/xlink" x="0px" y="0px"
	 viewBox="0 0 553.48 138.52" style="enable-background:new 0 0 553.48 138.52;" xml:space="preserve">
<style type="text/css">
	.st0{fill:#FFFFFF;}
</style>
<g>
	<g>
		<path class="st0" d="M96.55,18.59c-31.06,0-56.25,24.95-56.25,55.73c0,30.78,25.18,55.73,56.25,55.73s56.25-24.95,56.25-55.73
			C152.8,43.54,127.61,18.59,96.55,18.59z M70.93,91.5c0,2.47-2.02,4.48-4.52,4.48h-0.03c-2.5,0-4.52-2-4.52-4.48v-30.8
			c0.14,0.18,0.27,0.36,0.44,0.52l0.89,0.9c1.1,1.12,2.23,2.28,3.4,3.39c1.1,1.01,3.5,3.34,3.53,3.36c0.27,0.26,0.55,0.5,0.82,0.75
			V91.5z M79.34,85.11c-1.76,1.61-3.43,3.3-5.15,4.96c-0.69,0.67-1.38,1.33-2.07,2c0.02-0.19,0.06-0.38,0.06-0.57V79.55
			c1.84-1.68,3.81-3.21,5.93-4.51c0.56,0.33,1.11,0.66,1.68,0.95c3.27,1.71,6.86,2.89,10.61,3.51
			C86.32,80.44,82.45,82.32,79.34,85.11z M118.91,90.07c-1.72-1.65-3.39-3.35-5.15-4.96c-3.11-2.79-6.98-4.67-11.06-5.61
			c3.75-0.62,7.35-1.8,10.62-3.52c0.56-0.29,1.11-0.62,1.67-0.94c2.12,1.31,4.09,2.84,5.93,4.51V91.5c0,0.2,0.04,0.38,0.06,0.57
			C120.29,91.4,119.6,90.73,118.91,90.07z M112.74,74.88c-4.97,2.6-10.58,3.89-16.19,3.89c-5.61,0-11.22-1.28-16.19-3.89
			c-3.48-1.78-6.6-4.19-9.38-6.91c0,0-2.43-2.35-3.54-3.37c-1.46-1.39-2.86-2.84-4.27-4.28c-0.85-0.83-1.35-2-1.32-3.18
			c-0.02-1.85,1.29-3.59,3.02-4.2c0.47-0.18,0.98-0.27,1.48-0.27c1.09,0,2.19,0.41,2.99,1.14c0.55,0.53,1.09,1.12,1.62,1.66
			c1.07,1.03,2.14,2.07,3.21,3.1c1.72,1.65,3.39,3.35,5.15,4.96c4.53,4.07,10.65,6.25,16.73,6.31c0.02,0,0.04,0,0.06,0
			c0.14,0,0.28-0.01,0.41-0.01c0,0,0.01,0,0.01,0c0,0,0.01,0,0.01,0c0.14,0,0.28,0.01,0.41,0.01c0.02,0,0.04,0,0.06,0
			c6.09-0.07,12.2-2.24,16.73-6.31c1.76-1.61,3.43-3.3,5.15-4.96c1.07-1.03,2.14-2.07,3.21-3.1c0.53-0.55,1.07-1.14,1.62-1.66
			c0.81-0.74,1.9-1.14,2.99-1.14c0.5,0,1.01,0.09,1.48,0.27c1.74,0.62,3.04,2.36,3.02,4.2c0.04,1.18-0.47,2.36-1.32,3.18
			c-1.41,1.44-2.81,2.89-4.27,4.28c-1.11,1.02-3.54,3.37-3.54,3.37C119.34,70.69,116.22,73.1,112.74,74.88z M131.24,91.5
			c0,2.47-2.02,4.48-4.52,4.48h-0.03c-2.5,0-4.52-2-4.52-4.48V69.61c0.27-0.26,0.55-0.49,0.82-0.76c0.02-0.02,2.42-2.35,3.51-3.35
			c1.18-1.12,2.32-2.28,3.41-3.4l0.9-0.92c0.16-0.15,0.28-0.33,0.42-0.5V91.5z"/>
		<g>
			<g>
				<path class="st0" d="M201.44,101.79l-2.71,10.12h-2.1l-3.75-13.1h2.2l2.71,10.51l2.87-10.51h1.59l2.85,10.51l2.71-10.51h2.2
					l-3.73,13.1h-2.1L201.44,101.79z M221.69,106.05h-7.25v5.85h-1.97V98.8h1.97v5.5h7.25v-5.5h1.97v13.1h-1.97V106.05z
					 M227.35,98.8h8.8v1.73h-6.84v3.83h6.7v1.73h-6.7v4.09h6.84v1.73h-8.8V98.8z M243.82,106.86h-2.45v5.05h-1.97V98.8h5.52
					c2.49,0,4.2,1.61,4.2,4.03c0,2.36-1.59,3.62-3.26,3.83l3.36,5.25h-2.28L243.82,106.86z M244.67,100.53h-3.3v4.6h3.3
					c1.42,0,2.44-0.92,2.44-2.3S246.08,100.53,244.67,100.53z M252.33,98.8h8.8v1.73h-6.84v3.83h6.7v1.73h-6.7v4.09h6.84v1.73h-8.8
					V98.8z M344.37,98.8h6.15c2.34,0,3.69,1.43,3.69,3.34c0,1.65-1.08,2.75-2.28,3.01c1.39,0.22,2.53,1.63,2.53,3.22
					c0,2.06-1.37,3.54-3.79,3.54h-6.31V98.8z M350.14,104.36c1.32,0,2.04-0.83,2.04-1.91s-0.72-1.93-2.04-1.93h-3.81v3.83H350.14z
					 M350.24,110.18c1.37,0,2.2-0.79,2.2-2.06c0-1.08-0.75-2.03-2.2-2.03h-3.91v4.09H350.24z M357.7,98.8h8.8v1.73h-6.84v3.83h6.7
					v1.73h-6.7v4.09h6.84v1.73h-8.8V98.8z M369.2,105.36c0-4.03,2.99-6.78,6.72-6.78c2.57,0,4.18,1.24,5.2,2.77l-1.67,0.89
					c-0.69-1.1-1.98-1.91-3.53-1.91c-2.65,0-4.7,2.08-4.7,5.03c0,2.93,2.04,5.03,4.7,5.03c1.55,0,2.85-0.81,3.53-1.91l1.67,0.89
					c-1.04,1.53-2.63,2.77-5.2,2.77C372.18,112.14,369.2,109.39,369.2,105.36z M389.93,98.59c3.91,0,6.6,2.89,6.6,6.78
					c0,3.89-2.69,6.78-6.6,6.78c-3.91,0-6.6-2.89-6.6-6.78C383.33,101.47,386.02,98.59,389.93,98.59z M389.93,100.33
					c-2.81,0-4.58,2.14-4.58,5.03c0,2.87,1.77,5.03,4.58,5.03c2.77,0,4.58-2.16,4.58-5.03C394.51,102.47,392.7,100.33,389.93,100.33
					z M410.98,101.49l-4.24,10.41h-0.83l-4.24-10.41v10.41h-1.97V98.8h2.81l3.81,9.41l3.81-9.41h2.81v13.1h-1.96V101.49z
					 M416.65,98.8h8.8v1.73h-6.84v3.83h6.7v1.73h-6.7v4.09h6.84v1.73h-8.8V98.8z M429.01,108.55c0.88,0.98,2.3,1.85,4.12,1.85
					c2.12,0,2.87-1.08,2.87-2.03c0-1.37-1.49-1.77-3.17-2.2c-2.1-0.55-4.54-1.16-4.54-3.83c0-2.16,1.91-3.73,4.64-3.73
					c2.03,0,3.62,0.65,4.78,1.83l-1.14,1.45c-1-1.06-2.38-1.53-3.79-1.53c-1.45,0-2.46,0.75-2.46,1.85c0,1.18,1.42,1.55,3.05,1.97
					c2.14,0.57,4.64,1.24,4.64,4.03c0,2.04-1.42,3.95-4.95,3.95c-2.34,0-4.05-0.84-5.17-2.08L429.01,108.55z"/>
				<path class="st0" d="M268.89,98.8h2.24l4.18,10.96l4.2-10.96h2.24l-5.21,13.1h-2.45L268.89,98.8z M284.12,98.8h1.97v13.1h-1.97
					V98.8z M290.12,108.55c0.88,0.98,2.3,1.85,4.12,1.85c2.12,0,2.87-1.08,2.87-2.03c0-1.37-1.49-1.77-3.16-2.2
					c-2.1-0.55-4.54-1.16-4.54-3.83c0-2.16,1.91-3.73,4.64-3.73c2.03,0,3.62,0.65,4.78,1.83l-1.14,1.45c-1-1.06-2.38-1.53-3.79-1.53
					c-1.45,0-2.46,0.75-2.46,1.85c0,1.18,1.42,1.55,3.05,1.97c2.14,0.57,4.64,1.24,4.64,4.03c0,2.04-1.42,3.95-4.95,3.95
					c-2.34,0-4.05-0.84-5.17-2.08L290.12,108.55z M302.19,98.8h1.97v13.1h-1.97V98.8z M313.92,98.59c3.91,0,6.6,2.89,6.6,6.78
					c0,3.89-2.69,6.78-6.6,6.78c-3.91,0-6.6-2.89-6.6-6.78C307.32,101.47,310.01,98.59,313.92,98.59z M313.92,100.33
					c-2.81,0-4.58,2.14-4.58,5.03c0,2.87,1.77,5.03,4.58,5.03c2.77,0,4.58-2.16,4.58-5.03
					C318.49,102.47,316.69,100.33,313.92,100.33z M325.66,101.85v10.06h-1.97V98.8h2.02l7.13,9.82V98.8h1.97v13.1h-1.91
					L325.66,101.85z M451.36,106.86h-2.45v5.05h-1.97V98.8h5.52c2.49,0,4.2,1.61,4.2,4.03c0,2.36-1.59,3.62-3.26,3.83l3.36,5.25
					h-2.28L451.36,106.86z M452.2,100.53h-3.3v4.6h3.3c1.42,0,2.44-0.92,2.44-2.3S453.62,100.53,452.2,100.53z M459.87,98.8h8.8
					v1.73h-6.84v3.83h6.7v1.73h-6.7v4.09h6.84v1.73h-8.8V98.8z M480.21,109.19h-6.42l-1.06,2.71h-2.16l5.21-13.1h2.45l5.21,13.1
					h-2.16L480.21,109.19z M474.36,107.44h5.29l-2.65-6.93L474.36,107.44z M485.8,98.8h1.97v11.38h5.95v1.73h-7.92V98.8z
					 M496.67,98.8h1.97v13.1h-1.97V98.8z M505.55,100.53h-4.06V98.8h10.08v1.73h-4.05v11.38h-1.97V100.53z M518.17,106.42
					l-5.13-7.62h2.26l3.85,5.85l3.81-5.85h2.28l-5.11,7.62v5.48h-1.97V106.42z"/>
			</g>
			<g>
				<path class="st0" d="M357.7,68.86c3.81,0,6.9-3.09,6.9-6.9c0-3.81-3.09-6.9-6.9-6.9c-3.81,0-6.9,3.09-6.9,6.9
					C350.8,65.77,353.89,68.86,357.7,68.86z"/>
				<path class="st0" d="M402.06,67.84c-2.63-2.34-5.54-4.32-8.58-6.09c2.21-1.21,4.32-2.61,6.31-4.16
					c3.05-2.31,5.62-5.15,8.32-7.85c1.04-1.09,2.24-2.09,2.87-3.49c0.56-1.29,0.83-2.75,0.49-4.14c-0.36-1.94-1.65-3.64-3.31-4.66
					c-1.86-1.13-4.26-1.26-6.23-0.34c-1.31,0.55-2.23,1.67-3.22,2.64c-1.68,1.67-3.33,3.38-5.04,5.01
					c-5.52,5.31-12.8,8.6-20.34,9.75c-1.95,0.32-3.92,0.43-5.89,0.49c1.41,1.97,2.25,4.36,2.25,6.95c0,2.58-0.84,4.96-2.23,6.92
					c0.37,0,0.74,0,1.11,0c7.34,0.28,14.74,2.28,20.86,6.44c3.32,2.2,5.97,5.2,8.82,7.95c1.22,1.14,2.28,2.56,3.87,3.2
					c2.01,0.9,4.45,0.66,6.27-0.58c1.47-1.02,2.67-2.53,3.05-4.3c0.57-2.23-0.23-4.7-1.83-6.32
					C407.11,72.79,404.69,70.2,402.06,67.84z"/>
				<path class="st0" d="M345.68,61.96c0-2.65,0.89-5.07,2.34-7.06c-0.12-0.01-0.24-0.01-0.36-0.02
					c-7.94-0.63-15.75-3.63-21.86-8.79c-2.82-2.43-5.25-5.27-7.94-7.84c-1.79-1.64-4.5-2.21-6.78-1.34
					c-2.63,0.94-4.61,3.61-4.58,6.43c-0.06,1.81,0.71,3.6,1.99,4.87c2.14,2.19,4.26,4.42,6.47,6.54c2.91,2.71,6.15,5.07,9.63,7
					c-2.17,1.32-4.34,2.65-6.33,4.24c-3.11,2.38-5.77,5.27-8.55,8.01c-0.72,0.73-1.5,1.41-2.06,2.28c-0.68,1.05-1.13,2.27-1.16,3.53
					c-0.25,3.61,2.89,6.99,6.46,7.21c1.76,0.1,3.58-0.53,4.85-1.76c2.22-2.18,4.38-4.43,6.62-6.59c5.6-5.32,13.06-8.41,20.67-9.4
					c0.96-0.14,1.91-0.23,2.88-0.3C346.55,66.99,345.68,64.58,345.68,61.96z"/>
				<path class="st0" d="M425.19,36.9c0.82-0.25,1.7-0.21,2.55-0.21c27.08,0,54.17,0,81.25,0c4.19-0.09,8.37,1.62,11.35,4.57
					c2.43,2.34,4.09,5.48,4.65,8.81c0.74,4.1-0.28,8.46-2.71,11.84c2.02,2.92,3.1,6.47,2.94,10.02c0,2.76,0,5.52,0,8.28
					c0.02,1.74-0.61,3.49-1.8,4.77c-1.43,1.58-3.63,2.4-5.75,2.21c-1.8-0.19-3.56-1.06-4.7-2.49c-0.98-1.2-1.53-2.74-1.54-4.29
					c-0.02-3.1,0-6.19-0.01-9.29c0.02-1.18-1.01-2.36-2.23-2.27c-24,0-47.99,0-71.99,0c-0.78,0.02-1.64-0.11-2.32,0.36
					c-0.82,0.46-1.05,1.44-1.07,2.31c-0.02,3.03,0.01,6.05-0.02,9.08c0.01,2.56-1.66,4.99-4,6c-2.52,1.18-5.72,0.61-7.69-1.35
					c-1.36-1.29-2.08-3.17-2.06-5.03c0-3.03-0.04-6.06,0.01-9.09c-0.05-3.68,1.29-7.33,3.62-10.17c2.64-3.27,6.61-5.43,10.79-5.86
					c1.7-0.11,3.4-0.05,5.1-0.06c23.01,0,46.02,0,69.04,0c1.11,0.11,2.37-0.44,2.7-1.58c0.56-1.45-0.78-3.14-2.31-2.99
					c-27.35,0-54.71,0-82.06,0c-1.77,0-3.54-0.69-4.82-1.93c-2.05-1.97-2.63-5.24-1.47-7.82C421.47,38.85,423.19,37.38,425.19,36.9z
					 M192.88,43.53c-0.01,12.1,0,24.2-0.01,36.3c-0.03,1.09,0.1,2.2,0.55,3.2c1.03,2.59,3.79,4.31,6.56,4.18
					c3.48-0.05,6.64-3.11,6.64-6.62c0.02-6.57,0-13.15,0.01-19.72c0.01-0.33,0.06-0.65,0.09-0.97c4.21,4.16,8.94,7.84,14.21,10.57
					c14.61,7.73,32.86,7.9,47.73,0.76c5.79-2.76,11.01-6.63,15.57-11.12c0.03,6.63,0.01,13.27,0.01,19.9
					c-0.03,1.25,0.23,2.52,0.84,3.63c0.93,1.78,2.71,3.05,4.68,3.44c3.05,0.67,6.37-1.07,7.64-3.9c0.78-1.53,0.64-3.28,0.64-4.94
					c0-11.57,0-23.14,0-34.71c0-2.58-1.59-5.05-3.91-6.16c-1.76-0.86-3.9-0.91-5.72-0.2c-0.98,0.37-1.71,1.14-2.44,1.87
					c-3.26,3.25-6.52,6.49-9.78,9.74c-2.29,2.25-4.47,4.65-7.1,6.52c-6.98,5.14-15.74,7.65-24.37,7.47
					c-9.22-0.1-18.48-3.43-25.35-9.65c-2.66-2.46-5.2-5.05-7.8-7.58c-2.43-2.36-4.87-4.73-7.28-7.11c-2.33-2.23-6.27-2.3-8.77-0.32
					C193.88,39.37,192.87,41.44,192.88,43.53z M357.7,55.06c-3.81,0-6.9,3.09-6.9,6.9c0,3.81,3.09,6.9,6.9,6.9
					c3.81,0,6.9-3.09,6.9-6.9C364.6,58.15,361.51,55.06,357.7,55.06z"/>
			</g>
		</g>
	</g>
</g>
</svg>
